<svg width="20" height="20" viewBox="0 0 20 20" fill="none" xmlns="http://www.w3.org/2000/svg">
<path d="M9.19232 8.83333C9.19232 8.66027 9.23969 8.4911 9.32844 8.34721C9.41719 8.20332 9.54333 8.09116 9.69092 8.02494C9.83851 7.95871 10.0009 7.94138 10.1576 7.97515C10.3143 8.00891 10.4582 8.09224 10.5711 8.21461C10.6841 8.33699 10.761 8.49289 10.7922 8.66263C10.8233 8.83236 10.8074 9.00829 10.7462 9.16818C10.6851 9.32807 10.5816 9.46472 10.4487 9.56087C10.3159 9.65701 10.1598 9.70833 10 9.70833C9.7858 9.70833 9.58036 9.61614 9.42888 9.45205C9.27741 9.28796 9.19232 9.0654 9.19232 8.83333ZM7.03847 9.70833C7.19822 9.70833 7.35438 9.65701 7.4872 9.56087C7.62003 9.46472 7.72355 9.32807 7.78468 9.16818C7.84582 9.00829 7.86181 8.83236 7.83065 8.66263C7.79948 8.49289 7.72256 8.33699 7.6096 8.21461C7.49664 8.09224 7.35272 8.00891 7.19605 7.97515C7.03937 7.94138 6.87697 7.95871 6.72938 8.02494C6.5818 8.09116 6.45565 8.20332 6.3669 8.34721C6.27815 8.4911 6.23078 8.66027 6.23078 8.83333C6.23078 9.0654 6.31588 9.28796 6.46735 9.45205C6.61882 9.61614 6.82426 9.70833 7.03847 9.70833ZM12.9615 9.70833C13.1213 9.70833 13.2774 9.65701 13.4103 9.56087C13.5431 9.46472 13.6466 9.32807 13.7078 9.16818C13.7689 9.00829 13.7849 8.83236 13.7537 8.66263C13.7226 8.49289 13.6456 8.33699 13.5327 8.21461C13.4197 8.09224 13.2758 8.00891 13.1191 7.97515C12.9624 7.94138 12.8 7.95871 12.6525 8.02494C12.5049 8.09116 12.3787 8.20332 12.29 8.34721C12.2012 8.4911 12.1539 8.66027 12.1539 8.83333C12.1539 9.0654 12.2389 9.28796 12.3904 9.45205C12.5419 9.61614 12.7473 9.70833 12.9615 9.70833ZM17 4.16667V13.5C17 13.8094 16.8865 14.1062 16.6846 14.325C16.4826 14.5437 16.2087 14.6667 15.9231 14.6667H6.97117L4.77694 16.72L4.77088 16.7251C4.57703 16.9031 4.33104 17.0005 4.07694 17C3.91874 16.9997 3.76252 16.9619 3.61925 16.8892C3.43339 16.7961 3.27618 16.6471 3.16638 16.4599C3.05658 16.2726 2.99882 16.0551 3.00002 15.8333V4.16667C3.00002 3.85725 3.11348 3.5605 3.31544 3.34171C3.5174 3.12292 3.79132 3 4.07694 3H15.9231C16.2087 3 16.4826 3.12292 16.6846 3.34171C16.8865 3.5605 17 3.85725 17 4.16667ZM15.9231 4.16667H4.07694V15.8333L6.41723 13.6458C6.51452 13.5529 6.63952 13.5011 6.76924 13.5H15.9231V4.16667Z" fill="white"/>
</svg>
