<svg width="20" height="20" viewBox="0 0 20 20" fill="none" xmlns="http://www.w3.org/2000/svg">
<path d="M17.5 10.0003C17.5 10.1661 17.4342 10.3251 17.3169 10.4423C17.1997 10.5595 17.0408 10.6253 16.875 10.6253H4.6336L9.19219 15.1832C9.25026 15.2412 9.29632 15.3102 9.32775 15.386C9.35918 15.4619 9.37535 15.5432 9.37535 15.6253C9.37535 15.7075 9.35918 15.7888 9.32775 15.8647C9.29632 15.9405 9.25026 16.0095 9.19219 16.0675C9.13412 16.1256 9.06518 16.1717 8.98931 16.2031C8.91344 16.2345 8.83213 16.2507 8.75 16.2507C8.66788 16.2507 8.58656 16.2345 8.51069 16.2031C8.43482 16.1717 8.36588 16.1256 8.30782 16.0675L2.68282 10.4425C2.62471 10.3845 2.57861 10.3156 2.54715 10.2397C2.5157 10.1638 2.49951 10.0825 2.49951 10.0003C2.49951 9.91821 2.5157 9.83688 2.54715 9.76101C2.57861 9.68514 2.62471 9.61621 2.68282 9.55816L8.30782 3.93316C8.42509 3.81588 8.58415 3.75 8.75 3.75C8.91586 3.75 9.07492 3.81588 9.19219 3.93316C9.30947 4.05044 9.37535 4.2095 9.37535 4.37535C9.37535 4.5412 9.30947 4.70026 9.19219 4.81753L4.6336 9.37535H16.875C17.0408 9.37535 17.1997 9.4412 17.3169 9.55841C17.4342 9.67562 17.5 9.83459 17.5 10.0003Z" fill="white"/>
</svg>
