<svg width="20" height="20" viewBox="0 0 20 20" fill="none" xmlns="http://www.w3.org/2000/svg">
<path d="M17.9422 8.9333L10.4422 1.4333C10.3841 1.37519 10.3152 1.32909 10.2393 1.29764C10.1635 1.26619 10.0821 1.25 10 1.25C9.91787 1.25 9.83654 1.26619 9.76067 1.29764C9.68479 1.32909 9.61586 1.37519 9.55782 1.4333L2.05782 8.9333C1.97031 9.02071 1.9107 9.13212 1.88655 9.25343C1.86239 9.37473 1.87477 9.50047 1.92211 9.61474C1.96946 9.729 2.04964 9.82665 2.15252 9.89532C2.25539 9.96399 2.37632 10.0006 2.5 10.0005H5.625V11.8755C5.625 12.0413 5.69085 12.2002 5.80806 12.3174C5.92527 12.4346 6.08424 12.5005 6.25 12.5005H13.75C13.9158 12.5005 14.0747 12.4346 14.1919 12.3174C14.3092 12.2002 14.375 12.0413 14.375 11.8755V10.0005H17.5C17.6237 10.0006 17.7446 9.96399 17.8475 9.89532C17.9504 9.82665 18.0305 9.729 18.0779 9.61474C18.1252 9.50047 18.1376 9.37473 18.1135 9.25343C18.0893 9.13212 18.0297 9.02071 17.9422 8.9333ZM13.75 8.75049C13.5842 8.75049 13.4253 8.81634 13.3081 8.93355C13.1909 9.05076 13.125 9.20973 13.125 9.37549V11.2505H6.875V9.37549C6.875 9.20973 6.80916 9.05076 6.69195 8.93355C6.57474 8.81634 6.41576 8.75049 6.25 8.75049H4.0086L10 2.75909L15.9914 8.75049H13.75ZM14.375 16.8755C14.375 17.0413 14.3092 17.2002 14.1919 17.3174C14.0747 17.4346 13.9158 17.5005 13.75 17.5005H6.25C6.08424 17.5005 5.92527 17.4346 5.80806 17.3174C5.69085 17.2002 5.625 17.0413 5.625 16.8755C5.625 16.7097 5.69085 16.5508 5.80806 16.4336C5.92527 16.3163 6.08424 16.2505 6.25 16.2505H13.75C13.9158 16.2505 14.0747 16.3163 14.1919 16.4336C14.3092 16.5508 14.375 16.7097 14.375 16.8755ZM14.375 14.3755C14.375 14.5413 14.3092 14.7002 14.1919 14.8174C14.0747 14.9346 13.9158 15.0005 13.75 15.0005H6.25C6.08424 15.0005 5.92527 14.9346 5.80806 14.8174C5.69085 14.7002 5.625 14.5413 5.625 14.3755C5.625 14.2097 5.69085 14.0508 5.80806 13.9336C5.92527 13.8163 6.08424 13.7505 6.25 13.7505H13.75C13.9158 13.7505 14.0747 13.8163 14.1919 13.9336C14.3092 14.0508 14.375 14.2097 14.375 14.3755Z" fill="white"/>
</svg>
