<svg width="20" height="20" viewBox="0 0 20 20" fill="none" xmlns="http://www.w3.org/2000/svg">
<path d="M2.5 9.99965C2.5 9.83389 2.56585 9.67492 2.68306 9.55771C2.80027 9.4405 2.95924 9.37465 3.125 9.37465L15.3664 9.37465L10.8078 4.81684C10.7497 4.75877 10.7037 4.68983 10.6723 4.61396C10.6408 4.53809 10.6247 4.45677 10.6247 4.37465C10.6247 4.29253 10.6408 4.21121 10.6723 4.13534C10.7037 4.05947 10.7497 3.99053 10.8078 3.93247C10.8659 3.8744 10.9348 3.82833 11.0107 3.79691C11.0866 3.76548 11.1679 3.74931 11.25 3.74931C11.3321 3.74931 11.4134 3.76548 11.4893 3.79691C11.5652 3.82833 11.6341 3.8744 11.6922 3.93247L17.3172 9.55747C17.3753 9.61551 17.4214 9.68444 17.4528 9.76032C17.4843 9.83619 17.5005 9.91752 17.5005 9.99965C17.5005 10.0818 17.4843 10.1631 17.4528 10.239C17.4214 10.3149 17.3753 10.3838 17.3172 10.4418L11.6922 16.0668C11.5749 16.1841 11.4158 16.25 11.25 16.25C11.0841 16.25 10.9251 16.1841 10.8078 16.0668C10.6905 15.9496 10.6246 15.7905 10.6246 15.6247C10.6246 15.4588 10.6905 15.2997 10.8078 15.1825L15.3664 10.6247L3.125 10.6247C2.95924 10.6247 2.80027 10.5588 2.68306 10.4416C2.56585 10.3244 2.5 10.1654 2.5 9.99965Z" fill="white"/>
</svg>
