<svg width="20" height="20" viewBox="0 0 20 20" fill="none" xmlns="http://www.w3.org/2000/svg">
<path d="M18.5 7.45762C18.5003 7.14782 18.4276 6.84229 18.2878 6.56563C18.148 6.28898 17.945 6.04895 17.6951 5.86488C17.4453 5.68081 17.1555 5.55784 16.8493 5.50589C16.5431 5.45393 16.2289 5.47444 15.9321 5.56577C15.6353 5.65709 15.3641 5.81668 15.1404 6.03166C14.9168 6.24665 14.7469 6.51102 14.6444 6.80349C14.542 7.09596 14.5098 7.40834 14.5506 7.71546C14.5914 8.02258 14.7039 8.31586 14.8791 8.57167L12.9815 10.9029L11.2752 6.99138C11.5864 6.73015 11.8096 6.3798 11.9144 5.98783C12.0192 5.59586 12.0007 5.18122 11.8613 4.80011C11.7219 4.419 11.4684 4.08986 11.1351 3.8573C10.8018 3.62474 10.4049 3.5 9.99813 3.5C9.59138 3.5 9.19446 3.62474 8.86118 3.8573C8.5279 4.08986 8.27438 4.419 8.13497 4.80011C7.99557 5.18122 7.97703 5.59586 8.08187 5.98783C8.1867 6.3798 8.40985 6.73015 8.72105 6.99138L7.01898 10.9008L5.12141 8.56955C5.36517 8.21333 5.48551 7.78741 5.46412 7.35666C5.44272 6.92592 5.28076 6.51394 5.0029 6.18349C4.72503 5.85304 4.34649 5.62222 3.92493 5.52618C3.50337 5.43014 3.06188 5.47414 2.66772 5.65149C2.27355 5.82884 1.9483 6.12981 1.7415 6.50857C1.5347 6.88733 1.45769 7.32313 1.52219 7.74958C1.58669 8.17603 1.78917 8.56977 2.0988 8.87083C2.40842 9.1719 2.80822 9.36379 3.2373 9.41728L4.26293 15.5555C4.30703 15.8194 4.44355 16.0591 4.64821 16.2321C4.85287 16.405 5.1124 16.5 5.38065 16.5H14.6199C14.8881 16.5 15.1476 16.405 15.3523 16.2321C15.557 16.0591 15.6935 15.8194 15.7376 15.5555L16.7625 9.4201C17.2422 9.36036 17.6834 9.12796 18.0034 8.76658C18.3233 8.4052 18.4999 7.93972 18.5 7.45762ZM10.0003 4.63188C10.1684 4.63188 10.3327 4.6816 10.4725 4.77475C10.6123 4.8679 10.7212 5.00029 10.7855 5.15519C10.8499 5.31009 10.8667 5.48054 10.8339 5.64498C10.8011 5.80943 10.7202 5.96048 10.6013 6.07903C10.4824 6.19759 10.331 6.27833 10.1661 6.31104C10.0012 6.34375 9.8303 6.32696 9.67499 6.2628C9.51968 6.19863 9.38693 6.08998 9.29353 5.95057C9.20013 5.81116 9.15028 5.64727 9.15028 5.4796C9.15028 5.25477 9.23984 5.03915 9.39924 4.88017C9.55864 4.72119 9.77483 4.63188 10.0003 4.63188ZM2.63382 7.45762C2.63382 7.28996 2.68367 7.12606 2.77706 6.98665C2.87046 6.84725 3.00321 6.73859 3.15852 6.67443C3.31383 6.61027 3.48473 6.59348 3.64961 6.62619C3.81449 6.6589 3.96594 6.73964 4.08481 6.85819C4.20368 6.97675 4.28464 7.1278 4.31743 7.29224C4.35023 7.45668 4.3334 7.62713 4.26906 7.78203C4.20473 7.93693 4.09579 8.06933 3.95601 8.16248C3.81623 8.25563 3.6519 8.30535 3.48379 8.30535C3.25836 8.30535 3.04217 8.21603 2.88277 8.05705C2.72337 7.89807 2.63382 7.68245 2.63382 7.45762ZM14.6199 15.3697H5.38065L4.39468 9.47238L6.72715 12.332C6.77998 12.3978 6.8469 12.451 6.92301 12.4877C6.99912 12.5244 7.08249 12.5436 7.16701 12.544C7.19259 12.544 7.21815 12.5424 7.24351 12.539C7.34005 12.5259 7.43157 12.4882 7.50924 12.4296C7.58691 12.3709 7.6481 12.2933 7.68691 12.2042L9.76227 7.44279C9.92031 7.46256 10.0802 7.46256 10.2383 7.44279L12.3136 12.2042C12.3524 12.2933 12.4136 12.3709 12.4913 12.4296C12.569 12.4882 12.6605 12.5259 12.757 12.539C12.7824 12.5424 12.8079 12.544 12.8335 12.544C12.918 12.5436 13.0014 12.5244 13.0775 12.4877C13.1536 12.451 13.2205 12.3978 13.2734 12.332L15.6058 9.46955L14.6199 15.3697ZM16.5167 8.30535C16.3486 8.30535 16.1843 8.25563 16.0445 8.16248C15.9047 8.06933 15.7958 7.93693 15.7315 7.78203C15.6671 7.62713 15.6503 7.45668 15.6831 7.29224C15.7159 7.1278 15.7968 6.97675 15.9157 6.85819C16.0346 6.73964 16.186 6.6589 16.3509 6.62619C16.5158 6.59348 16.6867 6.61027 16.842 6.67443C16.9973 6.73859 17.1301 6.84725 17.2235 6.98665C17.3168 7.12606 17.3667 7.28996 17.3667 7.45762C17.3667 7.68245 17.2771 7.89807 17.1177 8.05705C16.9583 8.21603 16.7422 8.30535 16.5167 8.30535Z" fill="white"/>
</svg>
