<svg width="20" height="20" viewBox="0 0 20 20" fill="none" xmlns="http://www.w3.org/2000/svg">
<path d="M9.99979 6.2493C9.25811 6.2493 8.53309 6.46924 7.9164 6.88129C7.29972 7.29335 6.81907 7.87902 6.53524 8.56424C6.25142 9.24946 6.17715 10.0035 6.32185 10.7309C6.46654 11.4583 6.82369 12.1265 7.34814 12.651C7.87259 13.1754 8.54077 13.5326 9.2682 13.6772C9.99563 13.8219 10.7496 13.7477 11.4349 13.4639C12.1201 13.18 12.7057 12.6994 13.1178 12.0827C13.5299 11.466 13.7498 10.741 13.7498 9.9993C13.7488 9.00506 13.3533 8.05183 12.6503 7.3488C11.9473 6.64576 10.994 6.25034 9.99979 6.2493ZM9.99979 12.4993C9.50534 12.4993 9.02199 12.3527 8.61087 12.078C8.19974 11.8033 7.87931 11.4128 7.69009 10.956C7.50087 10.4992 7.45137 9.99653 7.54783 9.51158C7.64429 9.02663 7.88239 8.58117 8.23203 8.23154C8.58166 7.88191 9.02711 7.6438 9.51207 7.54734C9.99702 7.45088 10.4997 7.50039 10.9565 7.6896C11.4133 7.87882 11.8038 8.19926 12.0785 8.61038C12.3532 9.0215 12.4998 9.50485 12.4998 9.9993C12.4998 10.6623 12.2364 11.2982 11.7676 11.7671C11.2987 12.2359 10.6628 12.4993 9.99979 12.4993ZM16.8748 10.1681C16.8779 10.0556 16.8779 9.94305 16.8748 9.83055L18.0404 8.3743C18.1015 8.29784 18.1438 8.2081 18.1639 8.11229C18.184 8.01649 18.1813 7.91731 18.156 7.82274C17.965 7.10446 17.6791 6.41481 17.306 5.77196C17.2572 5.68783 17.1894 5.61627 17.108 5.56297C17.0266 5.50967 16.9339 5.4761 16.8373 5.46493L14.9842 5.25868C14.9071 5.17743 14.829 5.0993 14.7498 5.0243L14.531 3.16649C14.5198 3.06978 14.4861 2.97704 14.4327 2.89566C14.3792 2.81427 14.3075 2.7465 14.2232 2.69774C13.5801 2.32535 12.8905 2.03979 12.1724 1.84852C12.0778 1.82336 11.9786 1.82079 11.8828 1.84101C11.787 1.86123 11.6973 1.90368 11.6209 1.96493L10.1685 3.1243H9.83104L8.37479 1.96102C8.29833 1.8999 8.20859 1.8576 8.11278 1.83752C8.01698 1.81743 7.9178 1.82013 7.82323 1.8454C7.10507 2.03682 6.41546 2.32265 5.77245 2.6954C5.68832 2.74425 5.61676 2.81206 5.56346 2.89344C5.51015 2.97481 5.47658 3.06751 5.46542 3.16415L5.25917 5.0204C5.17792 5.098 5.09979 5.17613 5.02479 5.25477L3.16698 5.46805C3.07027 5.47931 2.97753 5.51299 2.89614 5.56644C2.81476 5.61988 2.74699 5.69159 2.69823 5.77587C2.32584 6.41896 2.04028 7.10855 1.84901 7.82665C1.82385 7.92128 1.82128 8.02049 1.8415 8.1163C1.86172 8.2121 1.90416 8.30182 1.96542 8.37821L3.12479 9.83055V10.1681L1.96151 11.6243C1.90039 11.7008 1.85809 11.7905 1.838 11.8863C1.81792 11.9821 1.82062 12.0813 1.84589 12.1759C2.03696 12.8942 2.32281 13.5838 2.69589 14.2266C2.74473 14.3108 2.81255 14.3823 2.89392 14.4356C2.9753 14.4889 3.068 14.5225 3.16464 14.5337L5.01776 14.7399C5.09537 14.8212 5.17349 14.8993 5.25214 14.9743L5.46854 16.8321C5.47979 16.9288 5.51348 17.0216 5.56692 17.103C5.62037 17.1843 5.69208 17.2521 5.77635 17.3009C6.41945 17.6733 7.10904 17.9588 7.82714 18.1501C7.92176 18.1752 8.02098 18.1778 8.11679 18.1576C8.21259 18.1374 8.30231 18.0949 8.3787 18.0337L9.83104 16.8743C9.94354 16.8774 10.056 16.8774 10.1685 16.8743L11.6248 18.0399C11.7013 18.101 11.791 18.1434 11.8868 18.1634C11.9826 18.1835 12.0818 18.1808 12.1764 18.1556C12.8946 17.9645 13.5843 17.6786 14.2271 17.3056C14.3113 17.2567 14.3828 17.1889 14.4361 17.1075C14.4894 17.0261 14.523 16.9334 14.5342 16.8368L14.7404 14.9837C14.8217 14.9066 14.8998 14.8285 14.9748 14.7493L16.8326 14.5306C16.9293 14.5193 17.0221 14.4856 17.1034 14.4322C17.1848 14.3787 17.2526 14.307 17.3014 14.2227C17.6737 13.5796 17.9593 12.8901 18.1506 12.172C18.1757 12.0773 18.1783 11.9781 18.1581 11.8823C18.1379 11.7865 18.0954 11.6968 18.0342 11.6204L16.8748 10.1681ZM15.617 9.66024C15.6302 9.88609 15.6302 10.1125 15.617 10.3384C15.6077 10.493 15.6561 10.6456 15.7529 10.7665L16.8615 12.1516C16.7343 12.5559 16.5714 12.9481 16.3748 13.3235L14.6092 13.5235C14.4554 13.5406 14.3134 13.6141 14.2107 13.7298C14.0604 13.8989 13.9002 14.0591 13.731 14.2095C13.6153 14.3122 13.5419 14.4541 13.5248 14.6079L13.3287 16.372C12.9533 16.5687 12.5611 16.7316 12.1568 16.8587L10.7709 15.7501C10.66 15.6615 10.5222 15.6133 10.3803 15.6134H10.3428C10.1169 15.6266 9.89048 15.6266 9.66464 15.6134C9.51001 15.6041 9.35744 15.6525 9.23651 15.7493L7.84745 16.8587C7.44318 16.7315 7.05102 16.5686 6.67557 16.372L6.47557 14.6087C6.45851 14.4549 6.38502 14.313 6.26932 14.2102C6.10018 14.0599 5.94 13.8997 5.78964 13.7306C5.68693 13.6149 5.54496 13.5414 5.3912 13.5243L3.62714 13.3274C3.4304 12.952 3.26752 12.5599 3.14042 12.1556L4.24901 10.7696C4.34581 10.6487 4.39426 10.4961 4.38495 10.3415C4.37168 10.1156 4.37168 9.88921 4.38495 9.66337C4.39426 9.50874 4.34581 9.35617 4.24901 9.23524L3.14042 7.84696C3.26764 7.44269 3.43052 7.05053 3.62714 6.67508L5.39042 6.47508C5.54418 6.45802 5.68615 6.38453 5.78885 6.26884C5.93922 6.09969 6.09939 5.93952 6.26854 5.78915C6.3847 5.68637 6.45849 5.54408 6.47557 5.38993L6.67167 3.62665C7.04706 3.42991 7.43923 3.26703 7.84354 3.13993L9.22948 4.24852C9.35041 4.34532 9.50298 4.39377 9.65761 4.38446C9.88345 4.37119 10.1099 4.37119 10.3357 4.38446C10.4904 4.39377 10.6429 4.34532 10.7639 4.24852L12.1521 3.13993C12.5564 3.26715 12.9486 3.43003 13.324 3.62665L13.524 5.38993C13.5411 5.54369 13.6146 5.68566 13.7303 5.78837C13.8994 5.93873 14.0596 6.09891 14.2099 6.26805C14.3127 6.38375 14.4546 6.45724 14.6084 6.4743L16.3724 6.6704C16.5692 7.04579 16.7321 7.43796 16.8592 7.84227L15.7506 9.22821C15.6528 9.35016 15.6043 9.5043 15.6146 9.66024H15.617Z" fill="white"/>
</svg>
