<svg width="20" height="20" viewBox="0 0 20 20" fill="none" xmlns="http://www.w3.org/2000/svg">
<path d="M18.75 7.5C18.75 7.66576 18.6842 7.82473 18.567 7.94194C18.4498 8.05915 18.2908 8.125 18.125 8.125H16.875V9.375C16.875 9.54076 16.8092 9.69973 16.692 9.81694C16.5748 9.93415 16.4158 10 16.25 10C16.0843 10 15.9253 9.93415 15.8081 9.81694C15.6909 9.69973 15.625 9.54076 15.625 9.375V8.125H14.375C14.2093 8.125 14.0503 8.05915 13.9331 7.94194C13.8159 7.82473 13.75 7.66576 13.75 7.5C13.75 7.33424 13.8159 7.17527 13.9331 7.05806C14.0503 6.94085 14.2093 6.875 14.375 6.875H15.625V5.625C15.625 5.45924 15.6909 5.30027 15.8081 5.18306C15.9253 5.06585 16.0843 5 16.25 5C16.4158 5 16.5748 5.06585 16.692 5.18306C16.8092 5.30027 16.875 5.45924 16.875 5.625V6.875H18.125C18.2908 6.875 18.4498 6.94085 18.567 7.05806C18.6842 7.17527 18.75 7.33424 18.75 7.5ZM11.25 4.375H11.875V5C11.875 5.16576 11.9409 5.32473 12.0581 5.44194C12.1753 5.55915 12.3343 5.625 12.5 5.625C12.6658 5.625 12.8248 5.55915 12.942 5.44194C13.0592 5.32473 13.125 5.16576 13.125 5V4.375H13.75C13.9158 4.375 14.0748 4.30915 14.192 4.19194C14.3092 4.07473 14.375 3.91576 14.375 3.75C14.375 3.58424 14.3092 3.42527 14.192 3.30806C14.0748 3.19085 13.9158 3.125 13.75 3.125H13.125V2.5C13.125 2.33424 13.0592 2.17527 12.942 2.05806C12.8248 1.94085 12.6658 1.875 12.5 1.875C12.3343 1.875 12.1753 1.94085 12.0581 2.05806C11.9409 2.17527 11.875 2.33424 11.875 2.5V3.125H11.25C11.0843 3.125 10.9253 3.19085 10.8081 3.30806C10.6909 3.42527 10.625 3.58424 10.625 3.75C10.625 3.91576 10.6909 4.07473 10.8081 4.19194C10.9253 4.30915 11.0843 4.375 11.25 4.375ZM16.9352 11.9531C17.0079 12.0378 17.0567 12.1405 17.0763 12.2504C17.096 12.3603 17.0858 12.4735 17.0469 12.5781C16.6132 13.7609 15.8886 14.8153 14.9399 15.6441C13.9913 16.473 12.8491 17.0495 11.6189 17.3205C10.3886 17.5915 9.10994 17.5483 7.90082 17.1948C6.69169 16.8413 5.59108 16.189 4.70056 15.2979C3.81005 14.4069 3.15831 13.3059 2.80551 12.0966C2.4527 10.8873 2.41019 9.60856 2.68191 8.37847C2.95362 7.14838 3.53079 6.00655 4.36017 5.05835C5.18955 4.11015 6.2444 3.38614 7.42738 2.95312C7.53151 2.91499 7.6439 2.90525 7.75303 2.92489C7.86216 2.94453 7.96411 2.99285 8.0484 3.0649C8.13269 3.13695 8.1963 3.23012 8.23269 3.33486C8.26909 3.43961 8.27696 3.55215 8.25551 3.66094C8.03649 4.76951 8.09387 5.91496 8.42259 6.99608C8.75131 8.07721 9.34124 9.06074 10.1403 9.85977C10.9393 10.6588 11.9228 11.2487 13.004 11.5775C14.0851 11.9062 15.2305 11.9636 16.3391 11.7445C16.448 11.7232 16.5607 11.7313 16.6654 11.768C16.7702 11.8047 16.8633 11.8686 16.9352 11.9531ZM15.4204 13.1156C15.2805 13.1227 15.1399 13.1266 15 13.1266C12.8456 13.1243 10.78 12.2673 9.25676 10.7437C7.73347 9.22016 6.8769 7.15446 6.87504 5C6.87504 4.86016 6.87504 4.71953 6.88598 4.57969C6.0544 5.05821 5.34416 5.72176 4.81027 6.51892C4.27638 7.31609 3.93319 8.22546 3.80728 9.17659C3.68137 10.1277 3.77612 11.0951 4.08419 12.0037C4.39227 12.9123 4.90539 13.7378 5.58381 14.4162C6.26223 15.0947 7.08772 15.6078 7.99635 15.9158C8.90497 16.2239 9.87232 16.3187 10.8234 16.1928C11.7746 16.0668 12.684 15.7237 13.4811 15.1898C14.2783 14.6559 14.9418 13.9456 15.4204 13.1141V13.1156Z" fill="white"/>
</svg>
