<svg width="120" height="32" viewBox="0 0 120 32" fill="none" xmlns="http://www.w3.org/2000/svg">
<path d="M119.714 16.4705C119.353 17.324 117.088 18.7028 115.709 19.2608C113.51 20.1471 112.328 19.0967 111.54 17.324C111.343 16.9301 111.244 16.569 111.113 16.1423C109.636 17.8821 107.371 19.983 105.336 20.935C99.9848 23.397 100.182 13.91 107.896 11.7435C111.179 10.8243 110.818 12.3672 112.525 12.6954C112.984 12.7939 113.083 13.0894 113.148 13.5161C113.706 17.718 114.133 18.276 118.335 16.2407C119.681 15.5842 119.911 15.8468 119.714 16.4705ZM106.222 17.718C107.83 16.6675 109.242 15.3216 110.654 14.0413C109.669 12.5313 106.091 14.304 104.909 16.569C103.957 18.4073 104.581 18.8341 106.222 17.718Z" fill="#F91138"/>
<path d="M98.4043 17.4234C99.1922 17.1936 101.063 16.3401 102.639 16.0118C103.624 15.8148 103.46 16.4385 102.869 16.7012C101.326 17.3905 99.7502 18.2112 97.9119 19.2945C96.9927 22.7413 95.3514 28.7158 92.1344 31.2106C90.5915 32.3924 89.2784 32.097 88.228 31.3091C82.1222 26.6477 89.9021 21.4939 94.7605 19.2288C95.614 18.8349 95.7125 18.6051 95.811 17.7188C95.9423 16.9638 95.9423 15.3224 96.2049 14.6987C96.763 13.2872 98.6997 13.3856 98.6669 14.6331C98.6669 15.1911 98.4371 16.8653 98.4043 17.4234ZM95.3186 20.2793C92.4298 21.5924 86.7179 25.8599 88.9502 28.7486C91.7076 32.3267 94.662 22.1176 95.3186 20.2793ZM96.5003 11.3504C96.8286 9.74187 99.1593 9.38077 98.7654 11.0878C98.4371 12.4993 96.1393 13.0574 96.5003 11.3504Z" fill="#F91138"/>
<path d="M92.1372 15.6501C96.3062 16.3066 92.8922 22.6422 86.3925 21.723C85.736 21.6245 84.9153 20.8367 85.342 20.0489C85.9329 19.0641 88.1651 19.2938 89.9706 18.8014C92.3013 18.1777 91.7104 17.3242 89.8721 17.2586C88.4934 17.2257 86.8521 17.4555 85.7688 17.0616C84.8496 16.7333 84.6198 15.8142 85.2107 14.8294C87.0819 11.8093 95.1901 9.18317 94.1396 12.7285C93.8114 13.7133 93.0563 13.5163 92.0059 13.5163C90.5943 13.5163 89.0186 14.0087 88.0667 14.7966C87.3116 15.4203 88.4278 15.4203 89.0843 15.4531C90.1348 15.5188 91.1524 15.5188 92.1372 15.6501Z" fill="#F91138"/>
<path d="M85.3284 16.6023C82.9649 19.3926 80.0433 22.1829 77.2859 21.2966C76.1697 20.9355 75.4804 19.885 75.4804 18.4406C75.4476 17.3902 76.5637 13.0899 78.0409 13.1227C78.7302 13.1555 79.2226 13.5823 78.8944 14.5999C76.1041 22.741 81.619 18.2765 84.8689 16.1428C85.4269 15.716 85.8208 15.9458 85.3284 16.6023ZM77.8111 10.5622C78.1065 9.08498 80.1746 8.85519 79.912 10.2667C79.6166 11.9737 77.45 12.1707 77.8111 10.5622Z" fill="#F91138"/>
<path d="M76.0482 16.3068C76.4749 15.8144 76.8689 15.8472 76.7375 16.471C76.081 19.0643 70.205 23.7913 69.1874 20.0163C68.8591 18.6704 69.1217 17.2916 69.2859 16.0442C69.6141 13.4181 68.5637 14.0418 67.0536 16.0442C65.6092 17.9153 64.4275 20.4102 63.2785 20.3774C61.8013 20.3445 61.9326 18.0466 62.2281 16.2083C62.622 13.8776 61.4731 14.3372 60.2913 16.274C58.9126 18.4077 58.6828 21.3293 56.746 21.5591C53.9557 21.8874 56.8116 12.7287 58.7484 12.4004C59.5034 12.2691 59.5691 13.615 59.5691 14.2387C63.3114 11.1858 64.8542 12.5317 64.4603 16.4053C65.5764 15.1579 66.5284 13.8776 67.9399 12.8928C70.205 11.2843 71.7479 11.8095 71.8463 14.2387C71.8792 15.1251 71.8135 16.0442 71.7807 16.9634C71.5837 20.4758 73.9801 18.4406 76.0482 16.3068Z" fill="#F91138"/>
<path d="M52.5141 15.6501C56.6832 16.3066 53.2692 22.6422 46.7694 21.723C46.1129 21.6245 45.2922 20.8367 45.719 20.0489C46.3099 19.0641 48.5421 19.2938 50.3476 18.8014C52.6783 18.1777 52.0874 17.3242 50.2491 17.2586C48.8704 17.2257 47.229 17.4555 46.1457 17.0616C45.2266 16.7333 44.9968 15.8142 45.5877 14.8294C47.4588 11.8093 55.567 9.18317 54.5166 12.7285C54.1883 13.7133 53.4333 13.5163 52.3828 13.5163C50.9713 13.5163 49.3956 14.0087 48.4436 14.7966C47.6886 15.4203 48.8047 15.4203 49.4612 15.4531C50.5117 15.5188 51.5293 15.5188 52.5141 15.6501Z" fill="white"/>
<path d="M35.726 17.226C38.2537 19.2613 41.6677 18.3093 44.7534 16.4382C45.7382 15.8145 46.2963 15.6503 45.7054 16.7336C44.2282 19.4254 40.4859 20.9683 38.1224 20.6072C36.6124 20.3774 35.3978 19.5239 34.3801 18.5719C34.1175 19.3598 33.7892 20.3118 33.3625 21.1981C32.7388 22.5768 32.2464 22.9379 31.8196 22.9379C30.4737 22.9051 30.8677 21.3622 31.0646 20.0491C31.4914 17.7841 34.4458 4.98162 35.6932 3.11049C36.7437 1.50197 38.0567 2.28981 37.7941 3.79985C37.4002 6.19621 36.12 12.0722 35.5947 14.4686C37.3017 13.5823 40.6501 11.2844 41.996 12.6303C43.5717 14.3044 37.0063 16.8321 35.726 17.226Z" fill="white"/>
<path d="M22.9866 18.4415C22.724 21.4287 30.0116 17.0299 32.0468 16.0451C33.2614 15.4542 33.0645 16.4062 32.4736 17.0299C30.4055 19.1965 25.2189 22.4135 22.5599 21.6913C20.6888 21.1989 19.9994 19.295 20.6888 17.3254C23.1179 10.3989 31.8499 10.4317 28.797 14.6664C27.3854 16.636 25.2845 18.1132 22.9866 18.4415ZM23.1836 16.6688C24.5295 16.2749 26.5319 15.1916 27.0572 13.7801C25.4158 13.6816 23.7088 15.0931 23.1836 16.6688Z" fill="white"/>
<path d="M4.67565 22.6422C6.87505 22.4124 11.4052 20.9024 14.1298 18.8343C16.4933 17.0288 17.4453 15.2562 14.5565 14.9935C11.0769 14.6653 4.21608 16.1753 2.01668 15.4203C-5.0411 12.9255 7.89269 0.484074 18.2003 0.0244985C19.3164 -0.0411544 20.3997 -0.008328 21.1876 0.549729C25.0611 3.50415 17.3468 8.26404 14.1954 8.98623C11.4052 9.64277 11.1425 7.83729 12.8167 7.04945C15.1802 5.93333 16.9857 5.34245 18.9553 3.40567C14.8848 2.45369 6.15286 7.50902 3.29692 11.1528C2.60756 12.0063 2.60756 12.5644 3.46106 12.9583C6.87505 14.4683 22.3037 9.87256 18.266 18.2434C15.3444 24.2835 2.96865 28.8465 4.47869 22.9705L4.67565 22.6422Z" fill="white"/>
</svg>
