<svg width="64" height="64" viewBox="0 0 64 64" fill="none" xmlns="http://www.w3.org/2000/svg">
<rect width="64" height="64" rx="8" fill="black"/>
<path d="M19.8253 50.2897C23.9767 49.8605 32.5273 47.0402 37.6701 43.1775C42.1313 39.8054 43.9281 36.4945 38.4756 36.004C31.9077 35.3909 18.9579 38.2113 14.8065 36.8011C1.48488 32.1414 25.8975 8.90412 45.3533 8.04576C47.4599 7.92313 49.5046 7.98445 50.9917 9.02675C58.3031 14.5448 43.7423 23.4351 37.794 24.7839C32.5273 26.0102 32.0316 22.638 35.1917 21.1665C39.6528 19.0819 43.0607 17.9783 46.7784 14.3609C39.0952 12.5828 22.6136 22.0249 17.223 28.8305C15.9218 30.4246 15.9218 31.4669 17.5328 32.2027C23.9767 35.023 53.0984 26.4394 45.4772 42.0739C39.9626 53.3553 16.6034 61.8777 19.4536 50.9029L19.8253 50.2897Z" fill="white"/>
</svg>
